<svg width="30" height="30" viewBox="0 0 30 30" fill="none" xmlns="http://www.w3.org/2000/svg">
<circle cx="15" cy="15" r="13.75" stroke="black" stroke-width="2.5"/>
<path d="M15.019 9.82525C14.1984 9.82525 13.533 10.4903 13.533 11.3113V13.4986H11.486C10.6654 13.4986 10 14.1637 10 14.9846C10 15.8053 10.6654 16.4706 11.486 16.4706H13.533V18.6892C13.533 19.5098 14.1984 20.1752 15.019 20.1752H15.0814C15.9017 20.1752 16.5671 19.5098 16.5671 18.6892V16.4706H18.6141C19.4347 16.4706 20.1001 15.8053 20.1001 14.9846C20.1001 14.1637 19.4347 13.4986 18.6141 13.4986H16.5671V11.3113C16.5671 10.4903 15.9017 9.82525 15.0814 9.82525H15.019Z" fill="black"/>
</svg>
