<svg width="30" height="30" viewBox="0 0 30 30" fill="none" xmlns="http://www.w3.org/2000/svg">
<path d="M14.8593 12.1052C14.221 11.3449 13.6638 10.8425 12.5015 10.8425C12.3564 10.8425 12.2018 10.8503 12.0364 10.8666C11.0311 10.9649 9.86813 11.8855 9.72644 13.6501V14.2376C9.8583 15.9263 11.1331 18.0092 14.8593 20.6226C18.5851 18.0092 19.8603 15.9263 19.9922 14.2376V13.6501C19.8505 11.8855 18.6875 10.9649 17.6815 10.8666C17.5164 10.8503 17.3615 10.8425 17.2168 10.8425C16.0548 10.8425 15.4976 11.3449 14.8593 12.1052Z" fill="black"/>
<path d="M0 15C0 23.2706 6.72935 29.9996 15 29.9996C23.2706 29.9996 30 23.2706 30 15C30 6.72936 23.2706 -3.10619e-05 15 -3.10619e-05C6.72935 -3.10619e-05 0 6.72936 0 15ZM3.20349 15C3.20349 8.49568 8.49567 3.2035 15 3.2035C21.5043 3.2035 26.7965 8.49568 26.7965 15C26.7965 21.5043 21.5043 26.7954 15 26.7954C8.49567 26.7954 3.20349 21.5043 3.20349 15Z" fill="black"/>
</svg>
