<svg width="30" height="30" viewBox="0 0 30 30" fill="none" xmlns="http://www.w3.org/2000/svg">
<path d="M14.492 14.728C14.716 14.728 14.924 14.672 15.116 14.56C15.308 14.448 15.46 14.3 15.572 14.116C15.684 13.924 15.74 13.716 15.74 13.492C15.74 13.268 15.684 13.06 15.572 12.868C15.46 12.676 15.308 12.524 15.116 12.412C14.924 12.3 14.716 12.244 14.492 12.244C14.268 12.244 14.06 12.3 13.868 12.412C13.684 12.524 13.536 12.676 13.424 12.868C13.312 13.06 13.256 13.268 13.256 13.492C13.256 13.836 13.376 14.128 13.616 14.368C13.856 14.608 14.148 14.728 14.492 14.728ZM14.492 10C15.132 10 15.72 10.156 16.256 10.468C16.784 10.78 17.204 11.2 17.516 11.728C17.828 12.264 17.984 12.852 17.984 13.492C17.984 13.98 17.864 14.54 17.624 15.172C17.416 15.708 17.128 16.288 16.76 16.912C16.456 17.408 16.108 17.924 15.716 18.46C15.444 18.836 15.156 19.204 14.852 19.564L14.492 19.984L14.132 19.564C13.828 19.204 13.54 18.836 13.268 18.46C12.876 17.924 12.528 17.408 12.224 16.912C11.856 16.288 11.568 15.708 11.36 15.172C11.12 14.54 11 13.98 11 13.492C11 12.852 11.156 12.264 11.468 11.728C11.78 11.2 12.2 10.78 12.728 10.468C13.264 10.156 13.852 10 14.492 10Z" fill="#868686"/>
</svg>
