<svg width="300" height="86" viewBox="0 0 300 86" fill="none" xmlns="http://www.w3.org/2000/svg">
<path d="M109.845 30.3112C108.694 30.3112 107.756 31.2571 107.756 32.4206V51.0925C107.756 52.2559 108.694 53.2012 109.845 53.2012H120.324C121.475 53.2012 122.412 52.2559 122.412 51.0925C122.412 49.9297 121.475 48.9824 120.324 48.9824H112.463C112.276 48.9824 112.124 48.8295 112.124 48.6399V32.4206C112.124 31.2571 111.187 30.3112 110.035 30.3112H109.845Z" fill="#000020"/>
<path d="M131.657 32.5164V50.9973C131.657 52.2124 132.636 53.2012 133.84 53.2012C135.045 53.2012 136.024 52.2124 136.024 50.9973V32.5164C136.024 31.3006 135.045 30.3112 133.84 30.3112C132.636 30.3112 131.657 31.3006 131.657 32.5164Z" fill="#000020"/>
<path d="M147.261 30.3112C146.04 30.3112 145.047 31.3149 145.047 32.5483V50.9803C145.047 52.2042 146.033 53.2012 147.246 53.2012C148.459 53.2012 149.446 52.2042 149.446 50.9803V43.5451H157.028C158.189 43.5451 159.132 42.5917 159.132 41.4201C159.132 40.2485 158.189 39.2944 157.028 39.2944H149.446V34.5619H158.484C159.644 34.5619 160.589 33.6085 160.589 32.4362C160.589 31.2646 159.644 30.3112 158.484 30.3112H147.261Z" fill="#000020"/>
<path d="M171.036 30.3112C169.885 30.3112 168.947 31.2571 168.947 32.4206V51.0925C168.947 52.2559 169.885 53.2012 171.036 53.2012H183.193C184.344 53.2012 185.28 52.2559 185.28 51.0925C185.28 49.9297 184.344 48.9824 183.193 48.9824H173.315V43.5451H182.021C183.172 43.5451 184.109 42.5998 184.109 41.4045C184.109 40.2411 183.172 39.2944 182.021 39.2944H173.315V34.5619H182.686C183.837 34.5619 184.775 33.6166 184.775 32.4525V32.4206C184.775 31.2571 183.837 30.3112 182.686 30.3112H171.036Z" fill="#000020"/>
<path d="M198.607 30.8895C197.673 31.2728 196.84 31.8205 196.128 32.5177C195.413 33.215 194.831 34.0739 194.395 35.0709C194.284 35.325 194.182 35.5867 194.09 35.8558C193.859 36.5286 193.965 37.2496 194.377 37.8347C194.791 38.4225 195.462 38.7725 196.174 38.7725H196.274C197.261 38.7725 198.131 38.095 198.388 37.1259C198.569 36.443 198.868 35.8673 199.277 35.4161C199.912 34.7148 200.716 34.375 201.735 34.375C202.568 34.375 203.245 34.6305 203.804 35.1551C204.347 35.6662 204.624 36.4626 204.624 37.5234C204.624 37.8544 204.524 38.1745 204.319 38.5034C204.094 38.8643 203.792 39.2258 203.423 39.5792C203.038 39.9468 202.597 40.326 202.114 40.7045C201.624 41.0899 201.129 41.4582 200.628 41.8095C199.965 42.2777 199.28 42.7806 198.572 43.3161C197.86 43.855 197.174 44.4558 196.536 45.1014C195.892 45.751 195.315 46.4734 194.82 47.2475C194.366 47.9528 194.011 48.7364 193.761 49.5763C193.7 49.7795 193.669 50.0004 193.669 50.2294V50.9865C193.669 52.2077 194.654 53.2012 195.863 53.2012H206.916C208.125 53.2012 209.109 52.2077 209.109 50.9865C209.109 49.7653 208.125 48.7711 206.916 48.7711H198.985C199.382 48.1955 199.88 47.6647 200.471 47.1863C201.283 46.5305 202.192 45.8516 203.169 45.1714C203.92 44.6583 204.644 44.1445 205.341 43.6315C206.048 43.1095 206.69 42.5312 207.246 41.9128C207.809 41.2869 208.263 40.5849 208.598 39.8292C208.937 39.0606 209.109 38.1622 209.109 37.1585C209.109 36.2934 208.95 35.4399 208.638 34.6203C208.324 33.7974 207.846 33.0573 207.216 32.4226C206.591 31.7906 205.811 31.2741 204.9 30.8902C203.989 30.5055 202.925 30.3112 201.735 30.3112C200.591 30.3112 199.539 30.5049 198.607 30.8895" fill="#000020"/>
<path d="M219.865 30.3112C218.704 30.3112 217.76 31.2646 217.76 32.4362V51.0761C217.76 52.2477 218.704 53.2012 219.865 53.2012H220.054C221.216 53.2012 222.159 52.2477 222.159 51.0761V43.5451H229.741C230.902 43.5451 231.845 42.5917 231.845 41.4201C231.845 40.2485 230.902 39.2944 229.741 39.2944H222.159V34.5619H231.198C232.359 34.5619 233.302 33.6085 233.302 32.4362C233.302 31.2646 232.359 30.3112 231.198 30.3112H219.865Z" fill="#000020"/>
<path d="M242.579 32.5164V50.9973C242.579 52.2124 243.558 53.2012 244.762 53.2012C245.966 53.2012 246.946 52.2124 246.946 50.9973V32.5164C246.946 31.3006 245.966 30.3112 244.762 30.3112C243.558 30.3112 242.579 31.3006 242.579 32.5164Z" fill="#000020"/>
<path d="M258.057 30.3112C256.905 30.3112 255.969 31.2571 255.969 32.4206V51.0925C255.969 52.2559 256.905 53.2012 258.057 53.2012H268.536C269.687 53.2012 270.624 52.2559 270.624 51.0925C270.624 49.9297 269.687 48.9824 268.536 48.9824H260.773C260.531 48.9824 260.336 48.7853 260.336 48.5414V32.4206C260.336 31.2571 259.399 30.3112 258.247 30.3112H258.057Z" fill="#000020"/>
<path d="M296.844 30.3112C295.941 30.3112 295.121 30.8827 294.803 31.7335C293.951 34.0128 293.08 36.3193 292.191 38.6502C291.264 41.081 290.349 43.4901 289.448 45.8788L284.243 31.7471C283.926 30.8888 283.103 30.3112 282.196 30.3112H281.228C280.025 30.3112 279.046 31.3006 279.046 32.5164V50.9973C279.046 52.2124 280.025 53.2012 281.261 53.2012C282.464 53.2012 283.443 52.2124 283.443 50.9973V41.3019L287.331 51.7713C287.649 52.6263 288.47 53.2012 289.376 53.2012H289.812C290.728 53.2012 291.552 52.6174 291.863 51.749C292.509 49.9474 293.171 48.1248 293.852 46.2811C294.448 44.6644 295.042 43.047 295.633 41.4303V50.9973C295.633 52.2124 296.613 53.2012 297.817 53.2012C299.02 53.2012 300 52.2124 300 50.9973V32.5164C300 31.3006 299.02 30.3112 297.817 30.3112H296.844Z" fill="#000020"/>
<path d="M12.5164 42.7847C12.5164 59.3669 25.8744 72.8564 42.2918 72.8564C58.7085 72.8564 72.0671 59.3669 72.0671 42.7847C72.0671 26.2031 58.7085 12.7123 42.2918 12.7123C25.8744 12.7123 12.5164 26.2031 12.5164 42.7847ZM18.8755 42.7847C18.8755 29.7444 29.3806 19.1349 42.2918 19.1349C55.2023 19.1349 65.7074 29.7444 65.7074 42.7847C65.7074 55.8257 55.2023 66.4331 42.2918 66.4331C29.3806 66.4331 18.8755 55.8257 18.8755 42.7847Z" fill="url(#paint0_linear)"/>
<path d="M8.01594 61.6466C7.29398 62.0992 6.79003 62.8087 6.59962 63.6452C6.40718 64.4825 6.54849 65.3421 7.01612 66.0985L8.86102 68.6075C16.958 79.1612 29.1762 85.2148 42.3814 85.2148C56.4828 85.2148 69.6215 78.1609 77.5233 66.3438C78.5037 64.8766 78.1202 62.8766 76.6675 61.8845C75.2168 60.8937 73.2347 61.2823 72.251 62.7475C65.532 72.7929 54.3661 78.7901 42.3814 78.7901C31.1577 78.7901 20.7791 73.6533 13.9094 64.6979L12.3962 62.6741C11.948 61.9449 11.2456 61.4373 10.4173 61.2443C10.1778 61.1872 9.93418 61.1586 9.69263 61.1586C9.10523 61.1586 8.52595 61.3252 8.01594 61.6466" fill="url(#paint1_linear)"/>
<path d="M44.7904 2.83519C44.5818 4.59257 45.8299 6.19702 47.5706 6.40701C48.4608 6.51438 49.6066 6.75564 49.7499 6.78894C66.353 10.2711 78.4029 25.2509 78.4029 42.4067C78.4029 46.0947 77.858 49.7338 76.7834 53.2261C76.262 54.9176 77.2 56.7218 78.874 57.2472C79.1788 57.345 79.4984 57.3926 79.8207 57.3926C81.2209 57.3926 82.4407 56.4867 82.8552 55.1357C84.1201 51.0325 84.762 46.7498 84.762 42.4067C84.762 22.2234 70.5906 4.59935 51.0802 0.504931C50.9658 0.478427 49.5447 0.175327 48.3208 0.0258209C48.2165 0.0163069 48.1129 0.0115685 48.01 0.0108889C46.3898 0.0108889 44.9849 1.20286 44.7904 2.83519Z" fill="url(#paint2_linear)"/>
<path d="M36.4459 0.0186093C34.8499 0.200055 34.0842 0.355695 33.7181 0.504521L33.7175 0.497055C14.1795 4.59691 0 22.223 0 42.4062C0 46.6386 0.611582 50.8234 1.81664 54.8417C2.22506 56.2063 3.44694 57.123 4.85857 57.123C5.16673 57.123 5.47829 57.0768 5.78241 56.9831C6.59588 56.735 7.26334 56.1805 7.66435 55.4248C8.0647 54.6684 8.1488 53.7986 7.90254 52.9776C6.87915 49.5669 6.36039 46.0107 6.36039 42.4062C6.36039 25.2511 18.4379 10.2659 35.0908 6.77086C35.1009 6.76746 36.1962 6.51193 37.1517 6.4032C38.895 6.20748 40.1553 4.61525 39.9608 2.85312C39.7765 1.21943 38.4112 -0.000387512 36.7951 -0.000387512C36.68 -0.000387512 36.5637 0.00569744 36.4459 0.0186093" fill="url(#paint3_linear)"/>
<path d="M35.1179 32.7258V52.4919C35.1179 53.5207 36.1965 54.1833 37.1014 53.711L54.5099 43.4597C55.5366 42.9228 55.4741 41.4183 54.4049 40.9718L36.9965 31.4564C36.8242 31.3844 36.6479 31.3511 36.4763 31.3511C35.7591 31.3511 35.1179 31.9362 35.1179 32.7258" fill="url(#paint4_linear)"/>
<defs>
<linearGradient id="paint0_linear" x1="87.9545" y1="-3.33488" x2="-0.835218" y2="84.5758" gradientUnits="userSpaceOnUse">
<stop stop-color="#00F0E0"/>
<stop offset="0.0794471" stop-color="#00F0E0"/>
<stop offset="0.170303" stop-color="#00B9FF"/>
<stop offset="0.209135" stop-color="#00B9FF"/>
<stop offset="0.308888" stop-color="#007AFF"/>
<stop offset="0.351522" stop-color="#007AFF"/>
<stop offset="0.59686" stop-color="#FF4DAA"/>
<stop offset="0.645373" stop-color="#FF4DAA"/>
<stop offset="0.873157" stop-color="#FFB700"/>
<stop offset="1" stop-color="#FEFF00"/>
</linearGradient>
<linearGradient id="paint1_linear" x1="98.9395" y1="7.75941" x2="10.1496" y2="95.67" gradientUnits="userSpaceOnUse">
<stop stop-color="#00F0E0"/>
<stop offset="0.0794471" stop-color="#00F0E0"/>
<stop offset="0.170303" stop-color="#00B9FF"/>
<stop offset="0.209135" stop-color="#00B9FF"/>
<stop offset="0.308888" stop-color="#007AFF"/>
<stop offset="0.351522" stop-color="#007AFF"/>
<stop offset="0.59686" stop-color="#FF4DAA"/>
<stop offset="0.645373" stop-color="#FF4DAA"/>
<stop offset="0.873157" stop-color="#FFB700"/>
<stop offset="1" stop-color="#FEFF00"/>
</linearGradient>
<linearGradient id="paint2_linear" x1="91.7851" y1="0.531412" x2="2.99534" y2="88.442" gradientUnits="userSpaceOnUse">
<stop stop-color="#00F0E0"/>
<stop offset="0.0794471" stop-color="#00F0E0"/>
<stop offset="0.170303" stop-color="#00B9FF"/>
<stop offset="0.209135" stop-color="#00B9FF"/>
<stop offset="0.308888" stop-color="#007AFF"/>
<stop offset="0.351522" stop-color="#007AFF"/>
<stop offset="0.59686" stop-color="#FF4DAA"/>
<stop offset="0.645373" stop-color="#FF4DAA"/>
<stop offset="0.873157" stop-color="#FFB700"/>
<stop offset="1" stop-color="#FEFF00"/>
</linearGradient>
<linearGradient id="paint3_linear" x1="67.433" y1="-24.0648" x2="-21.3568" y2="63.8459" gradientUnits="userSpaceOnUse">
<stop stop-color="#00F0E0"/>
<stop offset="0.0794471" stop-color="#00F0E0"/>
<stop offset="0.170303" stop-color="#00B9FF"/>
<stop offset="0.209135" stop-color="#00B9FF"/>
<stop offset="0.308888" stop-color="#007AFF"/>
<stop offset="0.351522" stop-color="#007AFF"/>
<stop offset="0.59686" stop-color="#FF4DAA"/>
<stop offset="0.645373" stop-color="#FF4DAA"/>
<stop offset="0.873157" stop-color="#FFB700"/>
<stop offset="1" stop-color="#FEFF00"/>
</linearGradient>
<linearGradient id="paint4_linear" x1="86.7751" y1="-4.5258" x2="-2.01466" y2="83.3846" gradientUnits="userSpaceOnUse">
<stop stop-color="#00F0E0"/>
<stop offset="0.0794471" stop-color="#00F0E0"/>
<stop offset="0.170303" stop-color="#00B9FF"/>
<stop offset="0.209135" stop-color="#00B9FF"/>
<stop offset="0.308888" stop-color="#007AFF"/>
<stop offset="0.351522" stop-color="#007AFF"/>
<stop offset="0.59686" stop-color="#FF4DAA"/>
<stop offset="0.645373" stop-color="#FF4DAA"/>
<stop offset="0.873157" stop-color="#FFB700"/>
<stop offset="1" stop-color="#FEFF00"/>
</linearGradient>
</defs>
</svg>
