<svg width="36" height="36" viewBox="0 0 36 36" fill="none" xmlns="http://www.w3.org/2000/svg">
<path d="M5.3161 18.0744C5.3161 25.0799 10.9895 30.7791 17.9622 30.7791C24.9349 30.7791 30.6083 25.0799 30.6083 18.0744C30.6083 11.069 24.9349 5.36923 17.9622 5.36923C10.9895 5.36923 5.3161 11.069 5.3161 18.0744ZM8.01712 18.0744C8.01712 12.5653 12.4787 8.083 17.9622 8.083C23.4458 8.083 27.9073 12.5653 27.9073 18.0744C27.9073 23.5837 23.4458 28.0654 17.9622 28.0654C12.4787 28.0654 8.01712 23.5837 8.01712 18.0744Z" fill="url(#paint0_linear)"/>
<path d="M3.40431 26.043C3.09784 26.2342 2.88391 26.534 2.80293 26.8873C2.72123 27.2407 2.78127 27.6042 2.97969 27.9236L3.76359 28.9838C7.20231 33.4424 12.3915 36 18 36C23.9892 36 29.5693 33.0198 32.9251 28.0275C33.3416 27.4076 33.1789 26.5626 32.5619 26.1433C31.9456 25.7248 31.1037 25.889 30.6859 26.5082C27.8323 30.7519 23.09 33.2858 18 33.2858C13.2334 33.2858 8.8251 31.1154 5.90751 27.3323L5.26486 26.4771C5.07451 26.1691 4.77599 25.9548 4.42441 25.8727C4.32261 25.8486 4.21949 25.8367 4.11686 25.8367C3.86743 25.8367 3.62101 25.907 3.40431 26.043Z" fill="url(#paint1_linear)"/>
<path d="M19.0235 1.19754C18.9351 1.94014 19.465 2.61771 20.2042 2.70644C20.5822 2.75201 21.0689 2.8538 21.1296 2.86794C28.1814 4.33912 33.2991 10.6675 33.2991 17.9157C33.2991 19.4737 33.0676 21.0112 32.6111 22.4862C32.3898 23.2012 32.7881 23.9633 33.499 24.1853C33.6286 24.2266 33.7643 24.2471 33.9012 24.2471C34.496 24.2471 35.0138 23.8637 35.19 23.2933C35.7273 21.5599 36 19.7504 36 17.9157C36 9.3884 29.9811 1.9428 21.6947 0.213414C21.646 0.201929 21.0425 0.0736642 20.5227 0.0105624C20.4786 0.00645251 20.4345 0.00452003 20.391 0.00452003C19.7025 0.00439891 19.106 0.50801 19.0235 1.19754Z" fill="url(#paint2_linear)"/>
<path d="M15.4793 0.00801198C14.8016 0.0846546 14.4762 0.150418 14.3209 0.21352L14.3201 0.210016C6.0223 1.94231 0 9.38851 0 17.9158C0 19.7037 0.259897 21.4719 0.771511 23.1694C0.945017 23.7459 1.46421 24.1332 2.06366 24.1332C2.19457 24.1332 2.32693 24.1135 2.45592 24.0742C2.80149 23.9689 3.08508 23.735 3.25522 23.4155C3.42524 23.0961 3.4611 22.7285 3.35641 22.382C2.92169 20.9407 2.70162 19.4385 2.70162 17.9158C2.70162 10.6683 7.83075 4.33705 14.9033 2.86055C14.9082 2.85922 15.3733 2.75139 15.7791 2.70533C16.5195 2.62265 17.055 1.9498 16.9718 1.20575C16.8937 0.51513 16.3139 3.71239e-05 15.6277 3.71239e-05C15.5787 3.71239e-05 15.5293 0.0025725 15.4793 0.00801198Z" fill="url(#paint3_linear)"/>
<path d="M14.9155 13.8245V22.1753C14.9155 22.6099 15.3737 22.8901 15.7578 22.6904L23.1515 18.3593C23.5878 18.1325 23.5608 17.4969 23.1071 17.3082L15.7134 13.2886C15.64 13.2581 15.5652 13.244 15.4923 13.244C15.1875 13.2439 14.9155 13.491 14.9155 13.8245Z" fill="url(#paint4_linear)"/>
<defs>
<linearGradient id="paint0_linear" x1="37.3558" y1="-1.41001" x2="-0.157074" y2="35.9283" gradientUnits="userSpaceOnUse">
<stop stop-color="#00F0E0"/>
<stop offset="0.0794471" stop-color="#00F0E0"/>
<stop offset="0.170303" stop-color="#00B9FF"/>
<stop offset="0.209135" stop-color="#00B9FF"/>
<stop offset="0.308888" stop-color="#007AFF"/>
<stop offset="0.351522" stop-color="#007AFF"/>
<stop offset="0.59686" stop-color="#FF4DAA"/>
<stop offset="0.645373" stop-color="#FF4DAA"/>
<stop offset="0.873157" stop-color="#FFB700"/>
<stop offset="1" stop-color="#FEFF00"/>
</linearGradient>
<linearGradient id="paint1_linear" x1="42.021" y1="3.27695" x2="4.50808" y2="40.6153" gradientUnits="userSpaceOnUse">
<stop stop-color="#00F0E0"/>
<stop offset="0.0794471" stop-color="#00F0E0"/>
<stop offset="0.170303" stop-color="#00B9FF"/>
<stop offset="0.209135" stop-color="#00B9FF"/>
<stop offset="0.308888" stop-color="#007AFF"/>
<stop offset="0.351522" stop-color="#007AFF"/>
<stop offset="0.59686" stop-color="#FF4DAA"/>
<stop offset="0.645373" stop-color="#FF4DAA"/>
<stop offset="0.873157" stop-color="#FFB700"/>
<stop offset="1" stop-color="#FEFF00"/>
</linearGradient>
<linearGradient id="paint2_linear" x1="38.9826" y1="0.224305" x2="1.46973" y2="37.5626" gradientUnits="userSpaceOnUse">
<stop stop-color="#00F0E0"/>
<stop offset="0.0794471" stop-color="#00F0E0"/>
<stop offset="0.170303" stop-color="#00B9FF"/>
<stop offset="0.209135" stop-color="#00B9FF"/>
<stop offset="0.308888" stop-color="#007AFF"/>
<stop offset="0.351522" stop-color="#007AFF"/>
<stop offset="0.59686" stop-color="#FF4DAA"/>
<stop offset="0.645373" stop-color="#FF4DAA"/>
<stop offset="0.873157" stop-color="#FFB700"/>
<stop offset="1" stop-color="#FEFF00"/>
</linearGradient>
<linearGradient id="paint3_linear" x1="28.6399" y1="-10.1667" x2="-8.87301" y2="27.1716" gradientUnits="userSpaceOnUse">
<stop stop-color="#00F0E0"/>
<stop offset="0.0794471" stop-color="#00F0E0"/>
<stop offset="0.170303" stop-color="#00B9FF"/>
<stop offset="0.209135" stop-color="#00B9FF"/>
<stop offset="0.308888" stop-color="#007AFF"/>
<stop offset="0.351522" stop-color="#007AFF"/>
<stop offset="0.59686" stop-color="#FF4DAA"/>
<stop offset="0.645373" stop-color="#FF4DAA"/>
<stop offset="0.873157" stop-color="#FFB700"/>
<stop offset="1" stop-color="#FEFF00"/>
</linearGradient>
<linearGradient id="paint4_linear" x1="36.8551" y1="-1.91317" x2="-0.657798" y2="35.4251" gradientUnits="userSpaceOnUse">
<stop stop-color="#00F0E0"/>
<stop offset="0.0794471" stop-color="#00F0E0"/>
<stop offset="0.170303" stop-color="#00B9FF"/>
<stop offset="0.209135" stop-color="#00B9FF"/>
<stop offset="0.308888" stop-color="#007AFF"/>
<stop offset="0.351522" stop-color="#007AFF"/>
<stop offset="0.59686" stop-color="#FF4DAA"/>
<stop offset="0.645373" stop-color="#FF4DAA"/>
<stop offset="0.873157" stop-color="#FFB700"/>
<stop offset="1" stop-color="#FEFF00"/>
</linearGradient>
</defs>
</svg>
