<svg width="30" height="30" viewBox="0 0 30 30" fill="none" xmlns="http://www.w3.org/2000/svg">
<path d="M10.7074 11.3124C9.57565 11.4442 8.55709 12.0293 7.91172 12.918C7.13551 13.9857 7.02262 15.1697 7.58495 16.3418C8.24998 17.7275 9.45667 18.5023 10.9823 18.5233L11.046 18.5237C12.128 18.5237 12.9754 18.2478 13.7933 17.6302C13.8546 17.5844 13.8858 17.5624 13.9062 17.5485C13.9529 17.5163 13.9539 17.5173 14.0549 17.4163L14.1065 17.3655C14.4759 16.999 14.5095 16.4187 14.1844 16.0161C14.1387 15.9591 14.0102 15.8422 13.9526 15.8039C13.5591 15.5405 13.0283 15.5893 12.6907 15.9198C12.529 16.0774 12.3456 16.1879 12.2673 16.235C12.0077 16.391 11.7372 16.4777 11.3908 16.516C10.442 16.6201 9.51091 15.9818 9.35499 15.1263C9.21229 14.3443 9.85733 13.5207 10.7637 13.3271C11.4633 13.1777 12.0812 13.3387 12.5998 13.804C13.7906 14.8728 14.9851 15.9384 16.1792 17.0038L16.6422 17.417C17.4747 18.1603 18.42 18.5372 19.4511 18.5372C19.8663 18.5372 20.2951 18.4738 20.7249 18.3484C22.1801 17.9254 23.1047 16.9696 23.399 15.5853C23.6725 14.2986 23.2549 13.1424 22.1916 12.2418C20.7751 11.0419 18.5736 10.9633 17.0707 12.0591C16.7178 12.3164 16.6042 12.4167 16.5988 12.4218C16.386 12.6129 16.2646 12.8872 16.266 13.1732C16.267 13.459 16.3897 13.7312 16.6022 13.92L16.6307 13.9454C17.0086 14.2806 17.5774 14.2837 17.9573 13.9542C17.9865 13.9335 18.0373 13.8905 18.1462 13.7929C18.597 13.3895 19.1006 13.2278 19.7352 13.2919C20.6188 13.3766 21.3276 14.0403 21.3845 14.8358C21.4374 15.5819 20.8222 16.2933 19.9528 16.4903C19.241 16.6503 18.5976 16.4587 17.9838 15.9022L17.1588 15.1517C16.128 14.2128 15.0623 13.2427 13.9861 12.3157C13.2106 11.6473 12.2137 11.2846 11.1959 11.2846C11.0335 11.2846 10.8701 11.2937 10.7074 11.3124" fill="black"/>
<path d="M0 14.9997C0 23.2703 6.72929 29.9985 14.9998 29.9985C23.2707 29.9985 30 23.2703 30 14.9997C30 6.72886 23.2707 -9.71125e-05 14.9998 -9.71125e-05C6.72929 -9.71125e-05 0 6.72886 0 14.9997ZM3.20382 14.9997C3.20382 8.49516 8.49559 3.20337 14.9998 3.20337C21.5041 3.20337 26.7962 8.49516 26.7962 14.9997C26.7962 21.5036 21.5041 26.7947 14.9998 26.7947C8.49559 26.7947 3.20382 21.5036 3.20382 14.9997Z" fill="black"/>
</svg>
