<svg width="30" height="30" viewBox="0 0 30 30" fill="none" xmlns="http://www.w3.org/2000/svg">
<path d="M28.75 15C28.75 22.5939 22.5939 28.75 15 28.75C7.40608 28.75 1.25 22.5939 1.25 15C1.25 7.40608 7.40608 1.25 15 1.25C22.5939 1.25 28.75 7.40608 28.75 15Z" fill="white" fill-opacity="0.01" stroke="black" stroke-width="2.5"/>
<mask id="mask0" mask-type="alpha" maskUnits="userSpaceOnUse" x="0" y="0" width="30" height="30">
<path fill-rule="evenodd" clip-rule="evenodd" d="M15 28.3332C22.3638 28.3332 28.3334 22.3636 28.3334 14.9998C28.3334 7.63604 22.3638 1.6665 15 1.6665C7.63622 1.6665 1.66669 7.63604 1.66669 14.9998C1.66669 22.3636 7.63622 28.3332 15 28.3332Z" fill="white" stroke="white" stroke-width="2.5"/>
</mask>
<g mask="url(#mask0)">
<path fill-rule="evenodd" clip-rule="evenodd" d="M15 42C20.5228 42 25 37.5228 25 32C25 26.4772 20.5228 22 15 22C9.47715 22 5 26.4772 5 32C5 37.5228 9.47715 42 15 42Z" fill="white" fill-opacity="0.01" stroke="black" stroke-width="2.5"/>
<path fill-rule="evenodd" clip-rule="evenodd" d="M15.2941 20.5881C18.218 20.5881 20.5882 18.2179 20.5882 15.294C20.5882 12.3701 18.218 9.99988 15.2941 9.99988C12.3703 9.99988 10 12.3701 10 15.294C10 18.2179 12.3703 20.5881 15.2941 20.5881Z" fill="white" fill-opacity="0.01" stroke="black" stroke-width="2.5"/>
</g>
</svg>
